# xmcd CD database file
#
# Track frame offsets:
#	150
#	4512
#	31920
#	33842
#	50190
#	52112
#	72172
#	76765
#	101980
#	126607
#	147955
#	151312
#	167415
#	178010
#	195735
#	196897
#	214717
#
# Disc length: 3182 seconds
#
# Revision: 2
# Processed by: cddbd v1.5.1PL0 Copyright (c) Steve Scherf et al.
# Submitted via: CDex 1.51
#
DISCID=ec0c6c11
DTITLE=Pferd, Das - The World Of Das Pferd
DYEAR=1993
DGENRE=Jazz
TTITLE0=Index
TTITLE1=De Temps En Temps
TTITLE2=Something´s In The Air
TTITLE3=Karabenemsi
TTITLE4=Yahoo
TTITLE5=Kurt Bilker
TTITLE6=No Way To Mbroruk
TTITLE7=Rebirth Of Nothing
TTITLE8=Judgement Day
TTITLE9=The Pitiable Leipzig Offering
TTITLE10=Forgotten Principles
TTITLE11=They Really Danced Bebop
TTITLE12=Family Joy
TTITLE13=Is That So?
TTITLE14=The Smell Of Margarine
TTITLE15=Lost Shoes
TTITLE16=Adeus
EXTD=YEAR: 1993
EXTT0=
EXTT1=
EXTT2=
EXTT3=
EXTT4=
EXTT5=
EXTT6=
EXTT7=
EXTT8=
EXTT9=
EXTT10=
EXTT11=
EXTT12=
EXTT13=
EXTT14=
EXTT15=
EXTT16=
PLAYORDER=
